<?xml version="1.0" encoding="UTF-8" standalone="no"?>
<!-- Created with Inkscape (http://www.inkscape.org/) -->

<svg
   width="512"
   height="512"
   viewBox="0 0 512 512"
   version="1.1"
   id="svg1"
   xml:space="preserve"
   inkscape:version="1.4.3 (0d15f75, 2025-12-25)"
   sodipodi:docname="octoxon.svg"
   xmlns:inkscape="http://www.inkscape.org/namespaces/inkscape"
   xmlns:sodipodi="http://sodipodi.sourceforge.net/DTD/sodipodi-0.dtd"
   xmlns="http://www.w3.org/2000/svg"
   xmlns:svg="http://www.w3.org/2000/svg"><sodipodi:namedview
     id="namedview1"
     pagecolor="#ffffff"
     bordercolor="#000000"
     borderopacity="0.25"
     inkscape:showpageshadow="2"
     inkscape:pageopacity="0.0"
     inkscape:pagecheckerboard="0"
     inkscape:deskcolor="#d1d1d1"
     inkscape:document-units="px"
     showguides="false"
     inkscape:zoom="0.27863046"
     inkscape:cx="-227.90043"
     inkscape:cy="303.26907"
     inkscape:window-width="1920"
     inkscape:window-height="1009"
     inkscape:window-x="-8"
     inkscape:window-y="-8"
     inkscape:window-maximized="1"
     inkscape:current-layer="layer1" /><defs
     id="defs1" /><g
     inkscape:label="Camada 1"
     inkscape:groupmode="layer"
     id="layer1"><rect
       style="font-variation-settings:'opsz' 36, 'wght' 600;fill:#2c2c2c;fill-opacity:1;stroke-width:1.09325"
       id="rect1"
       width="512"
       height="512"
       x="0"
       y="0"
       inkscape:label="Background"
       ry="80" /><path
       style="fill:#fefeff;fill-opacity:1;stroke-width:1.18852"
       d="m 246.66216,448.52886 c -41.53684,-8.87497 -76.01174,-38.68075 -94.54422,-81.7395 -8.06372,-18.73549 -13.62389,-43.9394 -13.57371,-61.52888 l 0.0238,-8.31967 5.81254,11.94548 c 6.48748,13.33257 15.41605,25.96257 31.4638,44.50738 24.81378,28.67489 44.65248,45.03914 70.2604,57.95539 28.83125,14.54203 65.52146,20.1766 95.76274,14.70644 7.58527,-1.37206 17.07861,-3.51774 21.0963,-4.76819 4.01766,-1.25045 7.30486,-1.92139 7.30486,-1.49097 0,1.0207 -19.56205,11.54623 -30.6746,16.50475 -28.8606,12.87782 -66.63044,17.84748 -92.93189,12.22777 z m -50.52394,-4.0461 c -11.5649,-3.74792 -29.13485,-11.9595 -40.19222,-18.78445 -32.59033,-20.11572 -55.16502,-49.76849 -64.074175,-84.16399 -3.073783,-11.86686 -3.559358,-15.90981 -3.643025,-30.33121 -0.05317,-9.15165 0.587342,-20.11577 1.423167,-24.36475 4.04115,-20.5435 14.278003,-44.55715 26.346263,-61.80325 6.08187,-8.69125 34.00504,-37.62888 35.17794,-36.45595 0.32382,0.3238 -2.6798,7.18807 -6.6747,15.2539 -8.67249,17.51 -12.91639,33.128 -16.58049,61.0176 -2.96329,22.55538 -3.13671,37.06755 -0.6704,56.0969 3.43549,26.50715 13.12446,55.20391 24.65819,73.03249 13.23475,20.458 33.3028,40.22761 51.25915,50.49686 6.09713,3.48695 3.718,3.48893 -7.0297,0.007 z m 106.38455,-29.28869 c -17.25634,-1.66662 -36.80794,-7.92416 -55.49182,-17.76026 -14.64919,-7.71204 -43.44128,-29.3389 -34.24173,-25.7203 7.28434,2.86525 30.2719,7.764 41.59834,8.86476 34.41577,3.34474 56.13242,2.73914 79.93836,-2.22921 56.4867,-11.78892 99.96406,-47.74405 118.07815,-97.6489 L 456,270.79329 l -0.73047,8.31967 c -3.80691,43.3596 -29.06343,90.48291 -60.46435,112.81365 -26.91628,19.14151 -56.85216,26.68935 -92.28241,23.26746 z m 7.16649,-46.02778 c 0.0195,-0.50273 3.09475,-2.66493 6.83401,-4.80489 12.13895,-6.94709 23.11741,-15.94564 40.17393,-32.92879 22.69656,-22.59892 34.12247,-38.4206 44.78922,-62.02055 11.20319,-24.7868 14.535,-40.42835 14.51613,-68.14742 -0.0155,-22.61078 -1.43869,-32.00128 -7.61419,-50.23675 -3.39438,-10.0231 -11.64279,-27.42155 -15.76683,-33.25706 -4.55176,-6.44075 0.22655,-3.09897 8.49719,5.94263 41.42361,45.28505 56.39439,101.4846 40.2881,151.23965 -10.21185,31.54625 -36.79179,61.15094 -69.84901,77.79779 -12.00795,6.04691 -30.55405,11.95754 -44.75854,14.26449 -6.48835,1.05377 -13.00036,2.17447 -14.47116,2.49045 -1.4708,0.31597 -2.65829,0.16317 -2.63885,-0.33955 z M 80.223642,355.6954 C 62.03855,324.55826 53.674827,288.21343 56.557047,252.85151 c 2.846645,-34.9256 14.721303,-60.78397 39.014245,-84.95782 21.083438,-20.98011 43.912758,-33.10115 75.087828,-39.8673 13.91307,-3.01965 44.05134,-3.0348 58.17518,-0.0292 11.42196,2.4306 22.95048,5.56815 22.37295,6.0889 -0.21189,0.19107 -6.00103,1.27637 -12.86477,2.41181 -15.8022,2.61406 -28.53376,6.76419 -49.30579,16.07226 -27.04387,12.11855 -42.86957,22.3431 -60.24131,38.92025 -47.039688,44.88812 -64.652413,106.643 -46.132888,161.75435 1.88195,5.6004 3.230683,10.37359 2.9972,10.60706 -0.233492,0.23349 -2.679717,-3.43688 -5.43605,-8.1564 z M 376.72788,283.27279 c 0.40439,-2.9416 1.05662,-12.83606 1.44939,-21.98768 1.47755,-34.42507 -6.87306,-74.72137 -21.60854,-104.2732 -26.93303,-54.01387 -72.19935,-86.944657 -126.44311,-91.986098 -14.04274,-1.305125 -7.9764,-3.010434 13.15406,-3.69775 37.44945,-1.218122 65.86938,5.114625 93.11604,20.74885 24.79755,14.228941 41.33303,31.763268 53.55509,56.790218 9.71561,19.89455 12.61886,32.39353 13.30187,57.26738 0.48943,17.8234 0.22734,22.05137 -2.05886,33.21437 -4.02275,19.6421 -10.10181,34.87643 -20.84039,52.22658 l -4.36078,7.0457 z m -30.06198,-107.142 c -9.31997,-10.20148 -21.69392,-19.72181 -39.76989,-30.59838 -34.93828,-21.02285 -65.41374,-31.08285 -99.88611,-32.97255 -32.44278,-1.77845 -67.91567,7.99313 -95.86838,26.40847 -9.49805,6.25733 -24.268095,19.27623 -30.47512,26.86195 -6.205058,7.58331 -7.306008,7.12138 -2.652108,-1.11275 22.278888,-39.41805 57.002188,-69.149868 95.303708,-81.603752 20.72377,-6.738416 52.74347,-8.429 72.15562,-3.809691 40.03679,9.527116 74.5358,36.835373 96.26785,76.202373 4.51135,8.17217 12.42586,26.6656 11.67569,27.28195 -0.21016,0.17265 -3.24824,-2.82325 -6.75126,-6.65762 z"
       id="path1"
       sodipodi:nodetypes="ssscsssssssssssssssssssssssssssscssssssssssssssssssssssssssssssssssssssscssssssssssss"
       inkscape:label="Circle" /></g></svg>
